<?xml version="1.0" encoding="UTF-8"?>
<svg viewBox="0 0 110.65163 84.299751" xmlns="http://www.w3.org/2000/svg" xmlns:xlink="http://www.w3.org/1999/xlink">
 <defs>
  <filter id="h">
   <feGaussianBlur stdDeviation=".52662"/>
  </filter>
  <filter id="i" x="-.1644" y="-.21328" width="1.3288" height="1.4266">
   <feGaussianBlur stdDeviation="1.24131"/>
  </filter>
  <linearGradient id="b">
   <stop stop-color="#fff" offset="0"/>
   <stop stop-color="#fff" stop-opacity="0" offset="1"/>
  </linearGradient>
  <radialGradient id="a" cx="278.53" cy="12.798" r="7.3868" gradientTransform="matrix(1.6668 .25023 -.43535 1.4424 -180.07 -76.258)" gradientUnits="userSpaceOnUse">
   <stop stop-opacity=".99107" offset="0"/>
   <stop stop-opacity=".61607" offset=".51389"/>
   <stop stop-color="#8d8d8d" stop-opacity="0" offset="1"/>
  </radialGradient>
  <radialGradient id="g" cx="305.98" cy="4.6951" r="8.9206" gradientUnits="userSpaceOnUse">
   <stop stop-color="#f60000" offset="0"/>
   <stop stop-color="#b30000" offset="1"/>
  </radialGradient>
  <radialGradient id="f" cx="302.83" cy="4.6951" r="8.9206" gradientUnits="userSpaceOnUse">
   <stop stop-color="#7f0000" offset="0"/>
   <stop stop-color="#840000" stop-opacity=".49804" offset=".66667"/>
   <stop stop-opacity="0" offset="1"/>
  </radialGradient>
  <radialGradient id="d" cx="302.83" cy="4.6951" r="8.9206" gradientUnits="userSpaceOnUse">
   <stop stop-color="#d43500" offset="0"/>
   <stop stop-color="#d42400" offset=".48052"/>
   <stop stop-color="#d40000" offset=".73611"/>
   <stop stop-color="#b20000" offset="1"/>
  </radialGradient>
  <radialGradient id="e" cx="537.75" cy="228.65" r=".74646" gradientTransform="matrix(-.78797 .51073 -2.0452 -3.1554 1235.7 709.11)" gradientUnits="userSpaceOnUse" xlink:href="#b"/>
  <radialGradient id="c" cx="537.75" cy="228.65" r=".74646" gradientTransform="matrix(1.6289 -1.2473 4.9949 6.5229 -1652.8 -572.9)" gradientUnits="userSpaceOnUse" xlink:href="#b"/>
 </defs>
 <path transform="matrix(2.1144 3.5259 -3.9747 1.9223 -494.51 -957.38)" d="m286.18 14.557a7.3868 8.4658 0 1 1 -14.774 0 7.3868 8.4658 0 1 1 14.774 0z" fill="url(#a)" filter="url(#h)" opacity=".74519"/>
 <g transform="matrix(2.8354 0 0 2.8354 -930.55 -690.17)">
  <path transform="matrix(1.2137 0 0 1.2137 -14.363 252.22)" d="m311.75 4.6951a8.9206 8.9206 0 1 1 -17.841 0 8.9206 8.9206 0 1 1 17.841 0z" fill="url(#g)"/>
  <path transform="matrix(.43828 .73087 -.8239 .39847 239.3 48.621)" d="m286.18 14.557a7.3868 8.4658 0 1 1 -14.774 0 7.3868 8.4658 0 1 1 14.774 0z" fill="url(#a)" filter="url(#i)" opacity=".41827"/>
  <path transform="matrix(.74879 0 0 .74879 127.83 252.2)" d="m311.75 4.6951a8.9206 8.9206 0 1 1 -17.841 0 8.9206 8.9206 0 1 1 17.841 0z" fill="url(#f)"/>
  <path d="m345.62 263.57c-1.2496-0.99812-1.586-1.5636-1.3958-2.7114 0.54187 1.487 1.3408 2.6265 1.3958 2.7114z" fill="url(#e)" fill-rule="evenodd"/>
 </g>
 <g transform="matrix(2.8354 0 0 2.8354 -930.55 -690.17)">
  <path transform="matrix(.9414 0 0 .9414 73.738 247.39)" d="m311.75 4.6951a8.9206 8.9206 0 1 1 -17.841 0 8.9206 8.9206 0 1 1 17.841 0z" fill="url(#d)"/>
  <path d="m362.32 245.18c2.8927 1.9601 3.7221 3.1342 3.5044 5.6669-1.4348-3.1461-3.37-5.4915-3.5044-5.6669z" fill="url(#c)" fill-rule="evenodd"/>
 </g>
</svg>
